<svg xmlns="http://www.w3.org/2000/svg" xmlns:xlink="http://www.w3.org/1999/xlink" width="157" height="193.833" viewBox="0 0 157 193.833">
  <defs>
    <clipPath id="clip-path">
      <rect id="Rectangle_9154" data-name="Rectangle 9154" width="109.334" height="109.333" transform="translate(0 0)" fill="none"/>
    </clipPath>
  </defs>
  <g id="Group_6409" data-name="Group 6409" transform="translate(-248 -2537.167)">
    <text id="Healthcare_100_paid_premiums" data-name="Healthcare
100% paid premiums" transform="translate(248 2678)" fill="#004e78" font-size="16" font-family="Helvetica-Bold, Helvetica" font-weight="700"><tspan x="0" y="12">HEALTHCARE</tspan><tspan x="0" y="30.4">100% PAID </tspan><tspan x="0" y="48.8">PREMIUMS</tspan></text>
    <line id="Line_47" data-name="Line 47" x2="156" transform="translate(248.5 2671.5)" fill="none" stroke="#004e78" stroke-width="1"/>
    <g id="Group_6403" data-name="Group 6403" transform="translate(271.833 2537.167)">
      <g id="Group_6383" data-name="Group 6383" clip-path="url(#clip-path)">
        <path id="Path_7281" data-name="Path 7281" d="M102.527,72.081,85.113,54.666l17.414-17.414A21.529,21.529,0,1,0,72.081,6.806L54.666,24.22,37.252,6.8A21.529,21.529,0,0,0,6.8,37.252L24.22,54.667,6.8,72.081a21.529,21.529,0,0,0,30.447,30.447L54.666,85.113l17.415,17.415a21.529,21.529,0,1,0,30.446-30.447M3.761,22.029A18.274,18.274,0,0,1,34.946,9.112L52.36,26.527,26.526,52.36,9.112,34.946A18.151,18.151,0,0,1,3.761,22.029m31.185,78.192A18.267,18.267,0,1,1,9.112,74.388L74.387,9.112a18.267,18.267,0,1,1,25.834,25.833Zm65.275,0a18.289,18.289,0,0,1-25.834,0L56.973,82.806,82.806,56.973l17.415,17.415a18.267,18.267,0,0,1,0,25.833" fill="#cfbd13"/>
        <path id="Path_7282" data-name="Path 7282" d="M102.527,72.081,85.113,54.666l17.414-17.414A21.529,21.529,0,1,0,72.081,6.806L54.666,24.22,37.252,6.8A21.529,21.529,0,0,0,6.8,37.252L24.22,54.667,6.8,72.081a21.529,21.529,0,0,0,30.447,30.447L54.666,85.113l17.415,17.415a21.529,21.529,0,1,0,30.446-30.447ZM3.761,22.029A18.274,18.274,0,0,1,34.946,9.112L52.36,26.527,26.526,52.36,9.112,34.946A18.151,18.151,0,0,1,3.761,22.029Zm31.185,78.192A18.267,18.267,0,1,1,9.112,74.388L74.387,9.112a18.267,18.267,0,1,1,25.834,25.833Zm65.275,0a18.289,18.289,0,0,1-25.834,0L56.973,82.806,82.806,56.973l17.415,17.415a18.267,18.267,0,0,1,0,25.833Z" fill="none" stroke="#cfbd13" stroke-miterlimit="10" stroke-width="1"/>
        <path id="Path_7283" data-name="Path 7283" d="M80.762,20.566a3.06,3.06,0,0,0,2.168-.9h0a3.07,3.07,0,1,0-2.168.9m0-3.26a.2.2,0,0,1,.139.057.2.2,0,0,1,0,.277l-.277-.277a.2.2,0,0,1,.139-.057m-.139.057.277.277a.2.2,0,0,1-.277-.277" fill="#cfbd13"/>
        <path id="Path_7284" data-name="Path 7284" d="M80.762,20.566a3.06,3.06,0,0,0,2.168-.9h0a3.07,3.07,0,1,0-2.168.9Zm0-3.26a.2.2,0,0,1,.139.057.2.2,0,0,1,0,.277l-.277-.277A.2.2,0,0,1,80.762,17.306Zm-.139.057.277.277a.2.2,0,0,1-.277-.277Z" fill="none" stroke="#cfbd13" stroke-miterlimit="10" stroke-width="1"/>
        <path id="Path_7285" data-name="Path 7285" d="M91.721,31.525a3.06,3.06,0,0,0,2.168-.9h0a3.07,3.07,0,1,0-2.168.9m0-3.26a.2.2,0,0,1,.138.334l-.277-.277a.2.2,0,0,1,.139-.057m-.139.057.277.277a.2.2,0,1,1-.277-.277" fill="#cfbd13"/>
        <path id="Path_7286" data-name="Path 7286" d="M91.721,31.525a3.06,3.06,0,0,0,2.168-.9h0a3.07,3.07,0,1,0-2.168.9Zm0-3.26a.2.2,0,0,1,.138.334l-.277-.277A.2.2,0,0,1,91.721,28.265Zm-.139.057.277.277a.2.2,0,1,1-.277-.277Z" fill="none" stroke="#cfbd13" stroke-miterlimit="10" stroke-width="1"/>
        <path id="Path_7287" data-name="Path 7287" d="M71.021,30.308a3.065,3.065,0,1,0-2.168-.9,3.056,3.056,0,0,0,2.168.9m0-3.26a.2.2,0,0,1,.138.334l-.277-.277a.2.2,0,0,1,.139-.057m-.139.057.277.277a.2.2,0,0,1-.277-.277" fill="#cfbd13"/>
        <path id="Path_7288" data-name="Path 7288" d="M71.021,30.308a3.065,3.065,0,1,0-2.168-.9A3.056,3.056,0,0,0,71.021,30.308Zm0-3.26a.2.2,0,0,1,.138.334l-.277-.277A.2.2,0,0,1,71.021,27.048Zm-.139.057.277.277a.2.2,0,0,1-.277-.277Z" fill="none" stroke="#cfbd13" stroke-miterlimit="10" stroke-width="1"/>
        <path id="Path_7289" data-name="Path 7289" d="M79.811,36.034a3.066,3.066,0,1,0,4.336,0,3.07,3.07,0,0,0-4.336,0m2.306,2.307a.2.2,0,0,1-.277,0,.2.2,0,0,1,0-.278.2.2,0,1,1,.277.278" fill="#cfbd13"/>
        <path id="Path_7290" data-name="Path 7290" d="M79.811,36.034a3.066,3.066,0,1,0,4.336,0A3.07,3.07,0,0,0,79.811,36.034Zm2.306,2.307a.2.2,0,0,1-.277,0,.2.2,0,0,1,0-.278.2.2,0,1,1,.277.278Z" fill="none" stroke="#cfbd13" stroke-miterlimit="10" stroke-width="1"/>
        <path id="Path_7291" data-name="Path 7291" d="M29.226,73.374h0a3.066,3.066,0,1,0-2.168.9,3.07,3.07,0,0,0,2.168-.9M27.058,71.01a.2.2,0,0,1,.139.057.2.2,0,0,1,0,.277l-.277-.277a.2.2,0,0,1,.138-.057m-.138.057.277.277a.2.2,0,1,1-.277-.277" fill="#cfbd13"/>
        <path id="Path_7292" data-name="Path 7292" d="M29.226,73.374h0a3.066,3.066,0,1,0-2.168.9A3.07,3.07,0,0,0,29.226,73.374ZM27.058,71.01a.2.2,0,0,1,.139.057.2.2,0,0,1,0,.277l-.277-.277A.2.2,0,0,1,27.058,71.01Zm-.138.057.277.277a.2.2,0,1,1-.277-.277Z" fill="none" stroke="#cfbd13" stroke-miterlimit="10" stroke-width="1"/>
        <path id="Path_7293" data-name="Path 7293" d="M35.849,80a3.066,3.066,0,1,0,4.336,0,3.068,3.068,0,0,0-4.336,0M38.155,82.3a.2.2,0,1,1-.276-.277h0a.2.2,0,0,1,.277,0,.2.2,0,0,1,0,.277" fill="#cfbd13"/>
        <path id="Path_7294" data-name="Path 7294" d="M35.849,80a3.066,3.066,0,1,0,4.336,0A3.068,3.068,0,0,0,35.849,80ZM38.155,82.3a.2.2,0,1,1-.276-.277h0a.2.2,0,0,1,.277,0A.2.2,0,0,1,38.155,82.3Z" fill="none" stroke="#cfbd13" stroke-miterlimit="10" stroke-width="1"/>
        <path id="Path_7295" data-name="Path 7295" d="M15.148,78.779a3.066,3.066,0,1,0,4.336,0,3.069,3.069,0,0,0-4.336,0m2.03,2.306a.2.2,0,0,1,0-.277l.277.277a.2.2,0,0,1-.277,0m.277,0-.277-.277a.2.2,0,0,1,.277,0,.2.2,0,0,1,0,.277" fill="#cfbd13"/>
        <path id="Path_7296" data-name="Path 7296" d="M15.148,78.779a3.066,3.066,0,1,0,4.336,0A3.069,3.069,0,0,0,15.148,78.779Zm2.03,2.306a.2.2,0,0,1,0-.277l.277.277A.2.2,0,0,1,17.178,81.085Zm.277,0-.277-.277a.2.2,0,0,1,.277,0A.2.2,0,0,1,17.455,81.085Z" fill="none" stroke="#cfbd13" stroke-miterlimit="10" stroke-width="1"/>
        <path id="Path_7297" data-name="Path 7297" d="M26.107,89.737a3.066,3.066,0,0,0,4.336,4.336h0a3.066,3.066,0,0,0-4.337-4.336m2.307,2.307a.2.2,0,0,1-.277-.277Zm0,0-.277-.277a.2.2,0,0,1,.277.277" fill="#cfbd13"/>
        <path id="Path_7298" data-name="Path 7298" d="M26.107,89.737a3.066,3.066,0,0,0,4.336,4.336h0a3.066,3.066,0,0,0-4.337-4.336Zm2.307,2.307a.2.2,0,0,1-.277-.277Zm0,0-.277-.277a.2.2,0,0,1,.277.277Z" fill="none" stroke="#cfbd13" stroke-miterlimit="10" stroke-width="1"/>
        <path id="Path_7299" data-name="Path 7299" d="M77.651,50.457a1.627,1.627,0,0,0-.478-1.153L59.763,31.893a1.631,1.631,0,0,0-2.307,0L31.708,57.642a1.63,1.63,0,0,0,0,2.306L49.119,77.359a1.63,1.63,0,0,0,2.306,0L77.173,51.611a1.628,1.628,0,0,0,.478-1.154M50.272,73.9l-15.1-15.1L58.609,35.353l15.1,15.1Z" fill="#cfbd13"/>
        <path id="Path_7300" data-name="Path 7300" d="M77.651,50.457a1.627,1.627,0,0,0-.478-1.153L59.763,31.893a1.631,1.631,0,0,0-2.307,0L31.708,57.642a1.63,1.63,0,0,0,0,2.306L49.119,77.359a1.63,1.63,0,0,0,2.306,0L77.173,51.611A1.628,1.628,0,0,0,77.651,50.457ZM50.272,73.9l-15.1-15.1L58.609,35.353l15.1,15.1Z" fill="none" stroke="#cfbd13" stroke-miterlimit="10" stroke-width="1"/>
      </g>
    </g>
  </g>
</svg>
