<svg xmlns="http://www.w3.org/2000/svg" xmlns:xlink="http://www.w3.org/1999/xlink" width="157" height="206.788" viewBox="0 0 157 206.788">
  <defs>
    <clipPath id="clip-path">
      <rect id="Rectangle_9158" data-name="Rectangle 9158" width="120.974" height="128.311" fill="none"/>
    </clipPath>
  </defs>
  <g id="Group_6405" data-name="Group 6405" transform="translate(-1141 -2524.212)">
    <text id="Free_in-office_sodas_and_snacks_" data-name="Free in-office sodas and snacks " transform="translate(1141 2678)" fill="#004e78" font-size="16" font-family="Helvetica-Bold, Helvetica" font-weight="700"><tspan x="0" y="12">FREE IN-OFFICE </tspan><tspan x="0" y="30.4">SODAS AND </tspan><tspan x="0" y="48.8">SNACKS </tspan></text>
    <line id="Line_44" data-name="Line 44" x2="156" transform="translate(1141.5 2671.5)" fill="none" stroke="#004e78" stroke-width="1"/>
    <g id="Group_6398" data-name="Group 6398" transform="translate(1159.013 2524.212)">
      <g id="Group_6391" data-name="Group 6391" clip-path="url(#clip-path)">
        <path id="Path_7340" data-name="Path 7340" d="M21.781,91.817A19.52,19.52,0,0,1,5.408,83.094C.534,76.155-.9,66.1,2.07,59.7a9.255,9.255,0,0,1,7.642-5.75c5.424-.481,9.448,2.821,13.329,6.016,4.256,3.5,8.665,7.129,15.45,6.523,9.269-.824,15.195-7.617,17.9-11.593a10.166,10.166,0,0,1,9.157-4.365c6.014.37,9.971,5.8,10.08,13.832.152,11.169-7.124,23.383-19.562,24.489A30.277,30.277,0,0,1,39.717,85.45c-7.365,5.514-13.209,6.034-15.955,6.278q-1,.09-1.981.089M10.751,59.152c-.189,0-.381.009-.574.026-.536.048-2.17.193-3.352,2.736C4.932,65.988,5.494,74.092,9.7,80.081A14.379,14.379,0,0,0,23.3,86.5c10.718-.953,19.022-9.37,24.648-17.267a25.924,25.924,0,0,1-8.989,2.478C30,72.509,24.3,67.8,19.707,64.019c-3.28-2.7-5.91-4.867-8.956-4.867M44.117,81.689A24.089,24.089,0,0,0,55.6,83.632c10.364-.921,14.885-11.779,14.783-19.194-.054-4.041-1.439-8.44-5.158-8.669a5.007,5.007,0,0,0-4.276,1.78c-.178.269-.673,1.211-1.111,2.045C54.38,69.98,49.013,76.97,44.117,81.689" fill="#ffc600"/>
        <path id="Path_7341" data-name="Path 7341" d="M21.781,91.817A19.52,19.52,0,0,1,5.408,83.094C.534,76.155-.9,66.1,2.07,59.7a9.255,9.255,0,0,1,7.642-5.75c5.424-.481,9.448,2.821,13.329,6.016,4.256,3.5,8.665,7.129,15.45,6.523,9.269-.824,15.195-7.617,17.9-11.593a10.166,10.166,0,0,1,9.157-4.365c6.014.37,9.971,5.8,10.08,13.832.152,11.169-7.124,23.383-19.562,24.489A30.277,30.277,0,0,1,39.717,85.45c-7.365,5.514-13.209,6.034-15.955,6.278Q22.76,91.818,21.781,91.817ZM10.751,59.152c-.189,0-.381.009-.574.026-.536.048-2.17.193-3.352,2.736C4.932,65.988,5.494,74.092,9.7,80.081A14.379,14.379,0,0,0,23.3,86.5c10.718-.953,19.022-9.37,24.648-17.267a25.924,25.924,0,0,1-8.989,2.478C30,72.509,24.3,67.8,19.707,64.019,16.427,61.319,13.8,59.152,10.751,59.152ZM44.117,81.689A24.089,24.089,0,0,0,55.6,83.632c10.364-.921,14.885-11.779,14.783-19.194-.054-4.041-1.439-8.44-5.158-8.669a5.007,5.007,0,0,0-4.276,1.78c-.178.269-.673,1.211-1.111,2.045C54.38,69.98,49.013,76.97,44.117,81.689Z" fill="none" stroke="#fff" stroke-miterlimit="10" stroke-width="1.056"/>
        <path id="Path_7342" data-name="Path 7342" d="M94.7,58.6a17.383,17.383,0,0,1-12.8-5.279,26.258,26.258,0,0,1-6.569-12.731,25.116,25.116,0,0,1-12.751-7.343A16.93,16.93,0,0,1,57.884,18.1,23.738,23.738,0,0,1,64.813,5.431c5.7-5.487,12.134-6.468,16.011-2.441,3.354,3.486,3.3,8.028,3.253,12.421C84.022,20.285,83.971,24.89,87.93,29c5.437,5.651,13.05,5.95,17.1,5.626a9.1,9.1,0,0,1,8.184,3.933c3.11,4.394,1.582,10.162-3.9,14.693A23.459,23.459,0,0,1,94.7,58.6M81.033,41.642a19.818,19.818,0,0,0,4.64,8.044c6.035,6.27,15.508,3.5,20.307-.471.879-.728,5.156-4.516,2.957-7.623a3.95,3.95,0,0,0-3.175-1.747c-.268.028-1.141.2-1.914.351-9.613,1.884-17.054,2.1-22.815,1.446M74.965,5.809c-1.968,0-4.494,1.455-6.516,3.4-4.534,4.365-8.835,13.4-2.1,20.4,5.963,6.2,15.207,7.44,23.164,7.15a22.566,22.566,0,0,1-5.368-4.122c-5.448-5.66-5.375-12.107-5.317-17.288.049-4.207-.013-6.88-1.788-8.724a2.776,2.776,0,0,0-2.08-.818" fill="#ffc600"/>
        <path id="Path_7343" data-name="Path 7343" d="M94.7,58.6a17.383,17.383,0,0,1-12.8-5.279,26.258,26.258,0,0,1-6.569-12.731,25.116,25.116,0,0,1-12.751-7.343A16.93,16.93,0,0,1,57.884,18.1,23.738,23.738,0,0,1,64.813,5.431c5.7-5.487,12.134-6.468,16.011-2.441,3.354,3.486,3.3,8.028,3.253,12.421C84.022,20.285,83.971,24.89,87.93,29c5.437,5.651,13.05,5.95,17.1,5.626a9.1,9.1,0,0,1,8.184,3.933c3.11,4.394,1.582,10.162-3.9,14.693A23.459,23.459,0,0,1,94.7,58.6ZM81.033,41.642a19.818,19.818,0,0,0,4.64,8.044c6.035,6.27,15.508,3.5,20.307-.471.879-.728,5.156-4.516,2.957-7.623a3.95,3.95,0,0,0-3.175-1.747c-.268.028-1.141.2-1.914.351C94.235,42.08,86.794,42.3,81.033,41.642ZM74.965,5.809c-1.968,0-4.494,1.455-6.516,3.4-4.534,4.365-8.835,13.4-2.1,20.4,5.963,6.2,15.207,7.44,23.164,7.15a22.566,22.566,0,0,1-5.368-4.122c-5.448-5.66-5.375-12.107-5.317-17.288.049-4.207-.013-6.88-1.788-8.724A2.776,2.776,0,0,0,74.965,5.809Z" fill="none" stroke="#fff" stroke-miterlimit="10" stroke-width="1.056"/>
        <path id="Path_7344" data-name="Path 7344" d="M39.06,50.915a13.782,13.782,0,0,1-8.093-2.666,21.72,21.72,0,0,1-7.1-8.851,20.782,20.782,0,0,1-10.492-3.662c-7.187-5.113-7.294-15.107-3.244-21.814C13.148,8.922,17.7,7,21.718,9.037a7.64,7.64,0,0,1,4.272,6.309c.208,3.04,1.265,8.644,6.019,12.025,3.408,2.425,6.815,1.877,10.422,1.3,3.478-.559,7.074-1.136,10.326,1.177,3.757,2.672,3.8,8.172.1,13.373-3.153,4.432-8.341,7.7-13.793,7.7M26.389,29.42c.868,5.466,2.929,11.221,7.618,14.556,5.783,4.114,11.883-.017,14.573-3.8,1.573-2.211,2.506-5.086,1.137-6.06-1.43-1.016-3.384-.766-6.455-.272-4.069.653-9.136,1.466-14.293-2.2a18.146,18.146,0,0,1-2.58-2.224M18.472,13.5c-1.9,0-3.634,2.768-3.852,3.129-2.377,3.937-3.392,11.141,1.8,14.831a14.416,14.416,0,0,0,5.526,2.366A58.964,58.964,0,0,1,20.68,16.905c.026-.562.054-1.194.05-1.431a2.487,2.487,0,0,0-1.378-1.757,1.923,1.923,0,0,0-.88-.214" fill="#ffc600"/>
        <path id="Path_7345" data-name="Path 7345" d="M39.06,50.915a13.782,13.782,0,0,1-8.093-2.666,21.72,21.72,0,0,1-7.1-8.851,20.782,20.782,0,0,1-10.492-3.662c-7.187-5.113-7.294-15.107-3.244-21.814C13.148,8.922,17.7,7,21.718,9.037a7.64,7.64,0,0,1,4.272,6.309c.208,3.04,1.265,8.644,6.019,12.025,3.408,2.425,6.815,1.877,10.422,1.3,3.478-.559,7.074-1.136,10.326,1.177,3.757,2.672,3.8,8.172.1,13.373C49.7,47.651,44.512,50.915,39.06,50.915ZM26.389,29.42c.868,5.466,2.929,11.221,7.618,14.556,5.783,4.114,11.883-.017,14.573-3.8,1.573-2.211,2.506-5.086,1.137-6.06-1.43-1.016-3.384-.766-6.455-.272-4.069.653-9.136,1.466-14.293-2.2A18.146,18.146,0,0,1,26.389,29.42ZM18.472,13.5c-1.9,0-3.634,2.768-3.852,3.129-2.377,3.937-3.392,11.141,1.8,14.831a14.416,14.416,0,0,0,5.526,2.366A58.964,58.964,0,0,1,20.68,16.905c.026-.562.054-1.194.05-1.431a2.487,2.487,0,0,0-1.378-1.757A1.923,1.923,0,0,0,18.472,13.5Z" fill="none" stroke="#fff" stroke-miterlimit="10" stroke-width="1.056"/>
        <path id="Path_7346" data-name="Path 7346" d="M93.835,107.708a37.982,37.982,0,0,1-7.173-.714A8.882,8.882,0,1,1,90.019,89.55c8.145,1.565,11.036-2.11,12.031-4.44a5.968,5.968,0,0,0,.263-4.81,8.884,8.884,0,0,1,1.312-15.174h0a8.88,8.88,0,0,1,9.046.742c7.52,5.349,9.922,16.379,5.711,26.227-3.42,8-11.521,15.612-24.549,15.613m-5.5-13.075a3.638,3.638,0,0,0-.677,7.211c9.32,1.794,21.018-.368,25.908-11.811,3.249-7.6,1.6-15.962-3.928-19.891a3.643,3.643,0,0,0-3.709-.3,3.639,3.639,0,0,0-.509,6.233c2.666,1.9,3.305,6.773,1.456,11.1-1.015,2.376-5.308,9.937-17.845,7.529a3.639,3.639,0,0,0-.7-.067m14.046-14.288h0Z" fill="#ffc600"/>
        <path id="Path_7347" data-name="Path 7347" d="M93.835,107.708a37.982,37.982,0,0,1-7.173-.714A8.882,8.882,0,1,1,90.019,89.55c8.145,1.565,11.036-2.11,12.031-4.44a5.968,5.968,0,0,0,.263-4.81,8.884,8.884,0,0,1,1.312-15.174h0a8.88,8.88,0,0,1,9.046.742c7.52,5.349,9.922,16.379,5.711,26.227C114.964,100.1,106.863,107.707,93.835,107.708Zm-5.5-13.075a3.638,3.638,0,0,0-.677,7.211c9.32,1.794,21.018-.368,25.908-11.811,3.249-7.6,1.6-15.962-3.928-19.891a3.643,3.643,0,0,0-3.709-.3,3.639,3.639,0,0,0-.509,6.233c2.666,1.9,3.305,6.773,1.456,11.1-1.015,2.376-5.308,9.937-17.845,7.529A3.639,3.639,0,0,0,88.331,94.633Zm14.046-14.288h0Zm-.084-.072Z" fill="none" stroke="#fff" stroke-miterlimit="10" stroke-width="1.056"/>
        <path id="Path_7348" data-name="Path 7348" d="M73,127.783a8.455,8.455,0,0,1-1.487-.132c-1.093-.194-10.807-2.147-15.523-10.767C52.8,111.056,52.807,104.2,56,96.5a8.613,8.613,0,1,1,15.91,6.606c-1.205,2.908-1.211,4.746-.813,5.5.6,1.126,2.673,1.911,3.583,2.113a8.6,8.6,0,0,1,6.608,6.167,8.5,8.5,0,0,1,.163,3.876A8.645,8.645,0,0,1,73,127.783M63.958,96.434a3.377,3.377,0,0,0-3.113,2.08c-2.555,6.155-2.64,11.488-.253,15.853,3.543,6.477,11,7.972,11.84,8.121a3.322,3.322,0,0,0,3.868-2.7,3.276,3.276,0,0,0-.062-1.5h0a3.44,3.44,0,0,0-2.62-2.435c-.033-.006-5.142-1.028-7.148-4.786-1.316-2.484-1.113-5.836.6-9.968a3.369,3.369,0,0,0-1.818-4.4,3.382,3.382,0,0,0-1.294-.26" fill="#ffc600"/>
        <path id="Path_7349" data-name="Path 7349" d="M73,127.783a8.455,8.455,0,0,1-1.487-.132c-1.093-.194-10.807-2.147-15.523-10.767C52.8,111.056,52.807,104.2,56,96.5a8.613,8.613,0,1,1,15.91,6.606c-1.205,2.908-1.211,4.746-.813,5.5.6,1.126,2.673,1.911,3.583,2.113a8.6,8.6,0,0,1,6.608,6.167,8.5,8.5,0,0,1,.163,3.876A8.645,8.645,0,0,1,73,127.783ZM63.958,96.434a3.377,3.377,0,0,0-3.113,2.08c-2.555,6.155-2.64,11.488-.253,15.853,3.543,6.477,11,7.972,11.84,8.121a3.322,3.322,0,0,0,3.868-2.7,3.276,3.276,0,0,0-.062-1.5h0a3.44,3.44,0,0,0-2.62-2.435c-.033-.006-5.142-1.028-7.148-4.786-1.316-2.484-1.113-5.836.6-9.968a3.369,3.369,0,0,0-1.818-4.4A3.382,3.382,0,0,0,63.958,96.434Z" fill="none" stroke="#fff" stroke-miterlimit="10" stroke-width="1.056"/>
        <path id="Path_7350" data-name="Path 7350" d="M37.8,126.354a9.01,9.01,0,0,1-7.9-4.678,5.2,5.2,0,0,0-5.484-2.98,8.916,8.916,0,0,1-6.545-1.037h0a8.99,8.99,0,0,1,2.564-16.5A23.288,23.288,0,0,1,45.676,113.04,9,9,0,0,1,37.8,126.354m-12.713-12.96a10.581,10.581,0,0,1,9.415,5.763,3.746,3.746,0,1,0,6.571-3.6,17.989,17.989,0,0,0-19.46-9.287,3.747,3.747,0,0,0,1.683,7.3,8.379,8.379,0,0,1,1.791-.18" fill="#ffc600"/>
        <path id="Path_7351" data-name="Path 7351" d="M37.8,126.354a9.01,9.01,0,0,1-7.9-4.678,5.2,5.2,0,0,0-5.484-2.98,8.916,8.916,0,0,1-6.545-1.037h0a8.99,8.99,0,0,1,2.564-16.5A23.288,23.288,0,0,1,45.676,113.04,9,9,0,0,1,37.8,126.354Zm-12.713-12.96a10.581,10.581,0,0,1,9.415,5.763,3.746,3.746,0,1,0,6.571-3.6,17.989,17.989,0,0,0-19.46-9.287,3.747,3.747,0,0,0,1.683,7.3A8.379,8.379,0,0,1,25.091,113.394Z" fill="none" stroke="#fff" stroke-miterlimit="10" stroke-width="1.056"/>
      </g>
    </g>
  </g>
</svg>
