<svg xmlns="http://www.w3.org/2000/svg" height="52.045" viewBox="0 0 202.064 52.045" width="202.064"><path d="m348.8 202.006c0-2.006 0-3.635 0-3.653h-3.56v3.653z" fill="#319dd1" transform="translate(-341.666 -193.728)"/><path d="m345.24 204.307h3.56c0-1.2 0-2.511 0-3.7h-3.56z" fill="#196e9b" transform="translate(-341.666 -192.487)"/><g fill="#003f66"><path d="m343.011 213.732c-.036.206-.034.381-.062.547h.062v.133c.17-.093.223-.262.37-.409v-.549h.054v-.138h-.054c-.07-.521-.169-.383-.37-.538a1.4 1.4 0 0 0 0 .676h.126v.143a1.715 1.715 0 0 0 -.126.135z" transform="translate(-342.925 -185.795)"/><path d="m343.4 222.606h-.122v.542h.06a2.141 2.141 0 0 0 .062-.542z" transform="translate(-342.745 -180.392)"/><path d="m346.932 222.863c-.122.079-.056-.019-.122.133h-.06v.138h.183z" transform="translate(-340.836 -180.25)"/><path d="m347.146 223v-.133h-.122c.068.148 0 .052.122.133z" transform="translate(-340.685 -180.25)"/><path d="m346.99 223.038v.277h-.122v.271c.06.04.122.087.184.133v-.271h.121c-.047-.373-.013-.309-.183-.41z" transform="translate(-340.771 -180.154)"/><path d="m346.793 223.124h-.124v.415h.06c.019-.139.044-.271.064-.415z" transform="translate(-340.88 -180.107)"/><path d="m347.183 223.268v.542h.245c-.019-.231-.04-.456-.064-.687-.064.048-.119.094-.181.145z" transform="translate(-340.597 -180.107)"/><path d="m346.632 223.712a.567.567 0 0 0 -.056-.409v.138h-.068v.133h.068c0 .026-.009.262.056.138z" transform="translate(-340.968 -180.008)"/><path d="m346.832 224.329v-.138c.067-.115-.177.017-.124-.139h-.119c.033.276.171.126.243.277z" transform="translate(-340.924 -179.596)"/><path d="m346.988 224.981v-.132h-.124c.07.151 0 .051.124.132z" transform="translate(-340.772 -179.158)"/><path d="m345.531 225.2c-.045.054-.206.077-.243.136v.135c-.039.047-.081.087-.124.138.073.239.062.257.245.271v-.133h.06v.276c.062-.05.126-.1.184-.143a1.278 1.278 0 0 0 -.122-.544z" transform="translate(-341.707 -178.966)"/><path d="m346.669 225.827c-.037-.274.009-.119-.06-.274v.133c-.073.119-.012-.019-.059.141z" transform="translate(-340.945 -178.771)"/><path d="m345.226 226.087c.047.152-.009.028.062.139.019-.139.037-.273.054-.411-.116.084-.047-.019-.116.138h-.062c.053.153-.011.02.062.134z" transform="translate(-341.707 -178.626)"/><path d="m345.642 225.992h-.122c.07.152 0 .056.122.138z" transform="translate(-341.512 -178.53)"/><path d="m345.759 225.992h-.119v.271h.119z" transform="translate(-341.446 -178.53)"/><path d="m346.627 226.263h.062c-.036-.271.008-.119-.062-.271z" transform="translate(-340.903 -178.53)"/><path d="m345.047 226.5c.043.378.011.313.181.414-.045-.37-.015-.314-.181-.414z" transform="translate(-341.772 -178.249)"/><path d="m345.64 226.619h.056c-.036-.277.011-.121-.056-.277z" transform="translate(-341.446 -178.337)"/><path d="m345.3 226.873c-.023.139-.04.277-.06.415h.183c-.039-.276.016-.124-.062-.276-.046-.156.013-.023-.061-.139z" transform="translate(-341.663 -178.045)"/><path d="m346.524 227.144a1.825 1.825 0 0 1 -.188.138.183.183 0 0 0 -.119-.138v-.273h-.117c-.02.273-.042.547-.062.815 0 0 .236.008.122.143h-.06c.033.271-.008.119.06.271v-.133c.042.042.079.087.124.133v-.271c.124.087.048-.019.124.138a3.1 3.1 0 0 1 .181-.411v-.274c-.089-.056.011-.056-.065-.138z" transform="translate(-341.229 -178.046)"/><path d="m344.517 226.854c-.015-.262-.031-.532-.045-.8a.426.426 0 0 0 .229-.13 2.669 2.669 0 0 0 -.06-.552h-.241l-.028.208h-.062v.425a.291.291 0 0 0 -.138.215 2.361 2.361 0 0 1 -.215-.215c-.09.129.023.129-.071.215v.431a6.2 6.2 0 0 1 .209.64c.087-.245 0-.079.143-.215v.425c.051-.073.095-.144.143-.209v.209c.078-.239.031 0 .068-.425h-.068c-.135-.208.136-.222.136-.222z" transform="translate(-342.412 -178.869)"/><path d="m345.228 227.408v-.267h-.181a.644.644 0 0 0 .181.267z" transform="translate(-341.772 -177.898)"/><path d="m345.56 227.971v-.271c-.054.042-.116.088-.178.138-.026-.1-.039-.184-.062-.281-.062.05-.119.1-.183.143v-.271c-.265.028-.208.077-.369.271a2.67 2.67 0 0 1 .127.544c.192-.189.378-.336.611-.135.048-.151-.006-.017.054-.138z" transform="translate(-341.925 -177.739)"/><path d="m344.372 227.663v.271c.121-.073.054.023.121-.133h-.06c-.053-.152.01-.019-.061-.138z" transform="translate(-342.143 -177.611)"/><path d="m346.034 228.3c.147-.084.113-.037.183-.267h.064v-.144c-.064-.045-.124-.087-.184-.133a2.834 2.834 0 0 0 -.063.544z" transform="translate(-341.229 -177.561)"/><path d="m345.089 229.241c.177-.127.136-.057.22-.4h.076v-.217c-.076-.068-.149-.132-.22-.2a5.065 5.065 0 0 0 -.076.817z" transform="translate(-341.749 -177.196)"/><path d="m344.644 228.086v.4a1.435 1.435 0 0 1 .55.138c-.036-.276.008-.115-.064-.276a.539.539 0 0 0 -.486-.262z" transform="translate(-341.993 -177.378)"/><path d="m346.5 226.447v-.147h-.122c.065.161-.005.063.122.147z" transform="translate(-341.042 -178.358)"/><path d="m343 211.807.012.138h-.012c0 .839 0 1.424.039 1.971l.023.074c-.043 0-.071 0-.109 0v.547c.062-.047.126-.1.188-.139v.139h.057c0-.053.006-.107.008-.16l.152.242-.057.77a.1.1 0 0 1 -.1-.039 2.355 2.355 0 0 0 -.183-.4c-.081.442-.144.673.126.815v.138c-.062.05-.126.091-.188.138a7.912 7.912 0 0 0 .062 1.638c.019.133.039.268.064.406h.18v-.138h.245v.138h.06v.414c.022.133.045.267.064.4h-.064a1.226 1.226 0 0 0 .121.825c0 .46.006.5-.121.685v.129c-.079.088-.149-.364-.178-.4h-.127v-.138c-.079.046-.161.087-.243.138v.82a.367.367 0 0 0 .243.129.59.59 0 0 1 -.118.276v.685c-.043-.045-.087-.087-.126-.133-.023.133-.042.268-.062.406h.126v.138h-.064v.541c.108-.105.161-.234.305-.271v.143h.065c.076-.129-.074-.212.054-.281.177.423.059.2.315.138v.143h.056v.128h-.183c.037.231.081.462.127.687-.1-.079-.105-.116-.251-.139.023.184.042.366.06.549-.107-.037-.253-.166-.366 0v.133a1.376 1.376 0 0 1 -.183.133 5.745 5.745 0 0 1 0 1.372v.133c.243-.087.488-.178.739-.267v.267h-.251s.014.535.06.277v-.138h.064v.138h.057c-.033.276.012.119-.057.276v.133c-.187.087-.369.184-.549.271a8.067 8.067 0 0 0 .062 1.369h-.126a2.077 2.077 0 0 1 0 .818.377.377 0 0 0 .243.138c-.02-.138-.042-.271-.06-.409h.06v-.273a1.042 1.042 0 0 1 .305.273v.138h-.178c.042.372.076.3.118.68h.124a.791.791 0 0 0 .446.622c-.022.184-.04.364-.056.549-.108-.051-.209-.093-.315-.139v.139h-.242c-.019.257-.057.271-.057.271v.818h-.064c-.023.217.056.254.064.273-.023.225-.043.456-.064.685h-.124v.133c.081.047.164.087.245.139v.132c.113.093.088-.077.122-.132.065.045.119.091.183.132v-.271h.06a7.023 7.023 0 0 0 .121.815h.125a2.274 2.274 0 0 0 -.125.69h-.121c.022.175.045.36.064.544h.127c.016-.231.034-.456.056-.687h.122v.687c-.017.194-.074-.056-.06.133h.06v.138a1.767 1.767 0 0 1 -.674-.138c-.07.152 0 .06-.118.138a4.479 4.479 0 0 1 .057.82h.188c-.045-.322-.022-.257-.127-.411v-.139c.118-.143.181.13.245.138v-.138h.124v-.133c.07.157.028 0 .057.271h.07c.009.1-.121.986-.127 1.091.034.147-.183-.234-.136.2.167.033.22.051.305.267.2-.006.228.028.248-.081.023.3.045.6.067.908h.138l-.006-.426a.29.29 0 0 0 .135-.217 2.534 2.534 0 0 1 .219.211c.088-.13-.026-.129.067-.217v-.022c.164.057.172.149.293-.153h.06c.028.184.045.369.064.549a.643.643 0 0 0 -.064.409h.064v.414h.062c-.02.093-.043.18-.062.273.042.04.082.087.122.133a4.537 4.537 0 0 1 -.06.818c-.26-.047-.192-.082-.431 0a9.407 9.407 0 0 1 .062 1.086c.065.051.122.1.183.144.088-.158-.054-.112.06-.273v-.138a.757.757 0 0 1 .186.267h.064v-.4c.04-.042.078-.088.119-.138v-.129h-.049c.016-.184.034-.374.057-.553.107.051.2.091.305.138v-.547h.127c0-.42.124-.271-.064-.4v-.139h.188c.026-.339.054-.5.057-.956h.124v-.271c-.124-.084-.056.017-.124-.144a3.8 3.8 0 0 0 .37-.133 3.244 3.244 0 0 1 -.246-.82h-.305c.022-.093.034-.189.057-.271l.082.067.389-.215a2.039 2.039 0 0 1 1.125.694v.143h-.308v.138h-.134v.132h-.057v-.27c-.188.157-.135-.042-.305-.277-.025.1-.042.184-.062.277h-.06a.688.688 0 0 0 .428.4v.276h.183a1.063 1.063 0 0 0 .062.823c-.048.429-.144.493-.188.949.126.084.059-.017.126.138h.062a1.123 1.123 0 0 1 -.138.443l.239.076c.008-.172.016-.347.023-.519.253.016.313.056.369-.409.124-.082.048.023.124-.133h.119v-.138h-.119c-.025-.133-.045-.271-.068-.406h.188c.051-.16-.011-.022.062-.141v-.411h-.062v-.133a.391.391 0 0 1 -.553-.138c-.068-.115 0 .019-.059-.143a.987.987 0 0 1 .425-.133v-.267c.132.248.3 0 .556 0-.022-.184-.04-.369-.059-.553.059-.04.119-.087.181-.129v.129h.062v-.129h.06v-.143h-.184v-.133a.365.365 0 0 0 -.243.133v.143c-.045-.05-.087-.1-.124-.143a3.3 3.3 0 0 0 .06.544c-.267-.074-.16-.2-.429-.273v-.129a.76.76 0 0 0 .188-.276c.065-.152-.163 0-.127-.277-.133-.133.443-.034.251-.07v-.138h.059c-.059-.184-.121-.364-.184-.544.084-.093.166-.184.246-.271v-.687c.119-.082.054.019.119-.133h.068c-.026.088-.045.184-.068.271.324-.1.381-.542.679-.68l-.062-.409c.124.082.053-.02.124.133h.059v-.277c-.039-.047-.084-.093-.121-.135-.036-.22.062-.267.062-.276-.025-.138-.043-.276-.062-.409a.4.4 0 0 1 .305-.135c-.04-.138-.081-.276-.122-.414h-.552c.019.18.043.369.063.549-.063.05-.124.087-.186.133v-.268c-.063-.045-.119.291-.243.135v-.135h-.064c.019-.091.04-.183.064-.276 0 0-.057-.026-.064-.276h.064v-.133h-.064a2.674 2.674 0 0 1 -.062-.68c.1-.047.2-.1.305-.138 0 0 .028.243.125.276v-.276h.06v.138h.246v-.138c.13-.042.212.183.305.276v-.138h.06v-.138h-.122c.039-.3.1-.756.122-1.091.186.073.335.105.429.409h.064c.019-.364-.108-.634-.088-1-.059-.05.05-.06-.011-.107v-.138a2.1 2.1 0 0 0 .183-.138c.023-.226.042-.456.062-.677h-.062v-.143h.062c.019-.133.039-.271.059-.409-.2-.152-.15-.082-.367 0v.276c-.141-.073 0-.222-.1-.369v-.133a.265.265 0 0 0 -.062.037v-.265l.141-.124.141-.432-.451-.4.161-.33a.384.384 0 0 1 .064.2h.124c.06-.47.073-.253.183-.542-.076-.084-.747-.335-.8-.473h-.064a.535.535 0 0 0 .118.287c-.169-.132-.356-.268-.356-.347.2-.042.228-.1.307-.406h.059a1.522 1.522 0 0 0 -.243-.547v-.133c.177.133.126.147.305 0a.758.758 0 0 0 .246.409.575.575 0 0 1 -.122.271v.135h.183v-.544h.059v-.138c.13.138.057.1.189 0v.276h.305c.039-.276-.008-.119.059-.276v-.133h-.183c.053-.18.037-.166.124-.273v-.414h-.06v-.138c-.064.046-.127.1-.188.138v-.409a1.542 1.542 0 0 1 -.127.138v.133c-.169.116-.118-.318-.3-.271v.138c-.064-.045-.124-.087-.188-.138v.138c-.15.11-.135.067-.217.026h.025l.113-.989-.112-.666c.127.012.153.054.191.4a2.392 2.392 0 0 0 .307-.552h.059a3.115 3.115 0 0 0 -.059.552 3.208 3.208 0 0 0 .305-.143c.023-.129.042-.271.06-.409h.188a1.594 1.594 0 0 0 -.36-.57 6.084 6.084 0 0 1 .064-1.091h.124c.019-.143.039-.281.059-.414h-.059v-.267c-.2.054-.188.105-.305.267l.047-1.141.36-.544-.186-.465a1.168 1.168 0 0 0 .085-.171h.066a8.755 8.755 0 0 1 .016-1.054h-.251v-.273h.188c-.019-.276-.037-.547-.06-.818h.06c.04-.276.087-.549.127-.82h-.064c-.023-.184-.04-.363-.064-.547-.118-.084-.048.019-.118-.138-.071-.116-.017.019-.07-.133.122-.116.164-.212.315-.277-.039-.271.008-.115-.064-.271v-.138c-.059.034-.119.067-.181.1v-.474a2.733 2.733 0 0 0 .181-.854h-.115v-.133h-.057v-.263l.143-.439a.27.27 0 0 1 .039.022v-.138l.012-.527.051-.022c-.019-.1-.031-.191-.043-.285l.051-.136-.143-.054.043-.274-.039-.208.105-.293v-.008-4.981h-7.033v7.724z" transform="translate(-342.934 -191.245)"/><path d="m346.131 227.015-.246.074c.012.22.026.44.039.66-.121.087-.24.18-.363.271.065.525.16.392.363.552l.1.062c.009-.113.019-.225.026-.342.042-.045.082-.087.124-.133v-.682h-.06c.003-.154.011-.307.017-.462z" transform="translate(-341.489 -177.967)"/><path d="m345.928 228.336v.133h-.062c.009-.095.016-.191.022-.285l-.1.016a3.941 3.941 0 0 0 .05.747h.064l.094-.339s-.016-.531-.068-.272z" transform="translate(-341.369 -177.324)"/></g><path d="m.098 8.122h3.477v3.697h-3.477z" fill="#319dd1"/><path d="m3.573 0h1.901v1.901h-1.901z" fill="#53bcee"/><path d="m.852 1.896h2.724v2.724h-2.724z" fill="#3dace3"/><path d="m.098 11.594h3.477v3.541h-3.477z" fill="#196e9b"/><path d="m345.24 206.365h3.56c0-1.139 0-2.388 0-3.517h-3.56z" fill="#08567e" transform="translate(-341.666 -191.256)"/><path d="m.098 15.089h3.477v3.541h-3.477z" fill="#004c71"/><g fill="#6c757d"><path d="m360.343 229.842v-26.871h3.3v26.871z" transform="translate(-333.361 -191.189)"/><path d="m382.243 227.486h-3.143v-12.681a7.844 7.844 0 0 0 -.271-2.188 3.9 3.9 0 0 0 -.792-1.483 3.011 3.011 0 0 0 -1.24-.849 4.49 4.49 0 0 0 -1.609-.27 5.389 5.389 0 0 0 -3.056.921 9.216 9.216 0 0 0 -2.472 2.543v14.008h-3.139v-18.909h3.032v1.934h.068a10.813 10.813 0 0 1 1.142-1.28 7.218 7.218 0 0 1 1.378-1.035 6.826 6.826 0 0 1 1.669-.7 7.515 7.515 0 0 1 1.985-.246 5.789 5.789 0 0 1 3.562 1.057 6.782 6.782 0 0 1 2.188 2.886h.081a10.416 10.416 0 0 1 2.922-2.9 6.987 6.987 0 0 1 3.834-1.045 8.863 8.863 0 0 1 2.153.288 5.374 5.374 0 0 1 2.086 1.073 5.75 5.75 0 0 1 1.581 2.147 8.494 8.494 0 0 1 .634 3.524v13.2h-3.136v-12.676a7.666 7.666 0 0 0 -.274-2.188 3.8 3.8 0 0 0 -.792-1.483 3.011 3.011 0 0 0 -1.234-.849 4.517 4.517 0 0 0 -1.61-.27 5.428 5.428 0 0 0 -3.064.921 9.12 9.12 0 0 0 -2.484 2.543z" transform="translate(-329.961 -188.834)"/><path d="m400.158 225.306h-.084a6.579 6.579 0 0 1 -.972.986 7.064 7.064 0 0 1 -1.356.87 8.154 8.154 0 0 1 -1.682.612 7.91 7.91 0 0 1 -1.945.229 7.537 7.537 0 0 1 -2.564-.423 5.543 5.543 0 0 1 -2-1.246 5.733 5.733 0 0 1 -1.31-2 7.325 7.325 0 0 1 -.462-2.68 6.443 6.443 0 0 1 .515-2.633 5.592 5.592 0 0 1 1.451-1.973 6.564 6.564 0 0 1 2.233-1.243 9.125 9.125 0 0 1 2.887-.434 15.284 15.284 0 0 1 2.774.27 13.95 13.95 0 0 1 2.269.621h.081v-1.372a9.493 9.493 0 0 0 -.1-1.432 3.858 3.858 0 0 0 -.343-1.1 4.157 4.157 0 0 0 -1.683-1.652 6.4 6.4 0 0 0 -3.12-.652 12.94 12.94 0 0 0 -2.745.281 16.712 16.712 0 0 0 -2.562.776v-2.7a8.129 8.129 0 0 1 1.145-.47 12.161 12.161 0 0 1 1.389-.372 14.7 14.7 0 0 1 1.539-.24 15.635 15.635 0 0 1 1.62-.081 9.556 9.556 0 0 1 4.769 1.057 6.244 6.244 0 0 1 2.664 2.8 5.9 5.9 0 0 1 .432 1.462 10.454 10.454 0 0 1 .132 1.754v13.159h-2.63zm-.166-6.474c-.578-.169-1.262-.324-2.055-.476a15.023 15.023 0 0 0 -2.618-.251 5.029 5.029 0 0 0 -3.131.871 3.175 3.175 0 0 0 -1.128 2.675 4.185 4.185 0 0 0 .284 1.6 3 3 0 0 0 .778 1.128 3.117 3.117 0 0 0 1.172.663 4.5 4.5 0 0 0 1.435.22 5.682 5.682 0 0 0 1.874-.3 7.862 7.862 0 0 0 1.548-.718 8.128 8.128 0 0 0 1.145-.829c.318-.277.547-.49.7-.642z" transform="translate(-318.272 -188.834)"/><path d="m415.323 227.3v-19.713h3.145v19.713z" transform="translate(-303.127 -188.651)"/><path d="m424.313 210.512h.064a10.057 10.057 0 0 1 1.158-1.28 7.609 7.609 0 0 1 1.432-1.035 7.239 7.239 0 0 1 1.731-.7 8.042 8.042 0 0 1 2.058-.246 7.93 7.93 0 0 1 2.466.372 5.013 5.013 0 0 1 2.009 1.2 5.738 5.738 0 0 1 1.345 2.177 9.529 9.529 0 0 1 .5 3.287v13.2h-3.143v-12.682a5.655 5.655 0 0 0 -.956-3.672 3.5 3.5 0 0 0 -2.805-1.119 5.992 5.992 0 0 0 -3.143.921 8.416 8.416 0 0 0 -2.61 2.543v14.008h-3.143v-18.952h3.049z" transform="translate(-299.855 -188.834)"/><path d="m442.492 227.819a10.085 10.085 0 0 1 -2.694-.33 7.069 7.069 0 0 1 -2.1-.938 5.954 5.954 0 0 1 -1.53-1.441 7 7 0 0 1 -1-1.834 7.238 7.238 0 0 1 -.4-1.64 14.324 14.324 0 0 1 -.124-1.953v-12.1h3.143v12.077a7.524 7.524 0 0 0 .429 2.739 4.027 4.027 0 0 0 1.559 1.964 4.983 4.983 0 0 0 2.771.715 4.756 4.756 0 0 0 2.867-.79 4.35 4.35 0 0 0 1.551-2.117 7.981 7.981 0 0 0 .343-2.509v-12.075h3.134v12.119a15.342 15.342 0 0 1 -.107 1.855 9.221 9.221 0 0 1 -.352 1.589 7.341 7.341 0 0 1 -1.006 1.88 6.359 6.359 0 0 1 -1.572 1.485 7.7 7.7 0 0 1 -2.157.967 10.5 10.5 0 0 1 -2.755.337z" transform="translate(-292.5 -188.651)"/><path d="m448.437 227.3v-19.713h3.146v19.713z" transform="translate(-284.918 -188.651)"/><path d="m454.31 209.5v-5.4h3.143v5.4h4.93v2.759h-4.93v11.5a3.968 3.968 0 0 0 .191 1.263 2.569 2.569 0 0 0 .609 1.009 2.814 2.814 0 0 0 1.06.663 4.612 4.612 0 0 0 1.564.237 9.309 9.309 0 0 0 1.319-.1 11.463 11.463 0 0 0 1.293-.271v2.7a6.666 6.666 0 0 1 -1.234.312 13.11 13.11 0 0 1 -1.989.166 8.021 8.021 0 0 1 -2.632-.384 4.941 4.941 0 0 1 -1.857-1.1 4.386 4.386 0 0 1 -1.1-1.733 6.653 6.653 0 0 1 -.367-2.26z" transform="translate(-281.688 -190.565)"/><path d="m414.6 208.5v1.51h-.078a4.422 4.422 0 0 0 -.538-.727 6.236 6.236 0 0 0 -1.063-.927 6.494 6.494 0 0 0 -1.6-.777 7.267 7.267 0 0 0 -2.19-.33 8.075 8.075 0 0 0 -3.179.651 7.682 7.682 0 0 0 -2.726 1.982 9.9 9.9 0 0 0 -1.927 3.351 15.971 15.971 0 0 0 -.338 8.29 10.45 10.45 0 0 0 1.039 2.63 7.2 7.2 0 0 0 1.5 1.847 7.964 7.964 0 0 0 3.647 1.818 8.777 8.777 0 0 0 1.74.186 7.821 7.821 0 0 0 3.126-.592 6.746 6.746 0 0 0 2.4-1.753h.057v1.648a6.29 6.29 0 0 1 -1.8 4.94 7.156 7.156 0 0 1 -4.648 1.6v2.807a14.137 14.137 0 0 0 3.647-.541 8.621 8.621 0 0 0 3.171-1.666 7.439 7.439 0 0 0 2.041-2.813 9.967 9.967 0 0 0 .735-3.972v-19.162zm-.124 14.52a7.294 7.294 0 0 1 -2.243 1.64 6.352 6.352 0 0 1 -2.736.6 6.482 6.482 0 0 1 -1.88-.3 4.445 4.445 0 0 1 -1.832-1.119 6.118 6.118 0 0 1 -1.39-2.294 11.14 11.14 0 0 1 -.544-3.8 12.916 12.916 0 0 1 .358-3.143 7.435 7.435 0 0 1 1.09-2.438 5.291 5.291 0 0 1 5.956-1.875 6.444 6.444 0 0 1 1.41.684 6.535 6.535 0 0 1 1.085.883 6.332 6.332 0 0 1 .725.849z" transform="translate(-311.243 -188.834)"/><path d="m471.794 227.514.361-.879 7.719-19.048h-3.139l-6.135 15.462h-.124l-5.972-15.462h-3.143l7.549 19.213c-.891 1.97-2.667 5.1-5.629 6.445l1.179 2.65a14.815 14.815 0 0 0 6.15-6.031 22.7 22.7 0 0 0 1.147-2.269z" transform="translate(-277.81 -188.651)"/><path d="m360.343 229.842v-26.871h3.3v26.871z" transform="translate(-333.361 -191.189)"/><path d="m382.243 227.486h-3.143v-12.681a7.844 7.844 0 0 0 -.271-2.188 3.9 3.9 0 0 0 -.792-1.483 3.011 3.011 0 0 0 -1.24-.849 4.49 4.49 0 0 0 -1.609-.27 5.389 5.389 0 0 0 -3.056.921 9.216 9.216 0 0 0 -2.472 2.543v14.008h-3.139v-18.909h3.032v1.934h.068a10.813 10.813 0 0 1 1.142-1.28 7.218 7.218 0 0 1 1.378-1.035 6.826 6.826 0 0 1 1.669-.7 7.515 7.515 0 0 1 1.985-.246 5.789 5.789 0 0 1 3.562 1.057 6.782 6.782 0 0 1 2.188 2.886h.081a10.416 10.416 0 0 1 2.922-2.9 6.987 6.987 0 0 1 3.834-1.045 8.863 8.863 0 0 1 2.153.288 5.374 5.374 0 0 1 2.086 1.073 5.75 5.75 0 0 1 1.581 2.147 8.494 8.494 0 0 1 .634 3.524v13.2h-3.136v-12.676a7.666 7.666 0 0 0 -.274-2.188 3.8 3.8 0 0 0 -.792-1.483 3.011 3.011 0 0 0 -1.234-.849 4.517 4.517 0 0 0 -1.61-.27 5.428 5.428 0 0 0 -3.064.921 9.12 9.12 0 0 0 -2.484 2.543z" transform="translate(-329.961 -188.834)"/><path d="m400.158 225.306h-.084a6.579 6.579 0 0 1 -.972.986 7.064 7.064 0 0 1 -1.356.87 8.154 8.154 0 0 1 -1.682.612 7.91 7.91 0 0 1 -1.945.229 7.537 7.537 0 0 1 -2.564-.423 5.543 5.543 0 0 1 -2-1.246 5.733 5.733 0 0 1 -1.31-2 7.325 7.325 0 0 1 -.462-2.68 6.443 6.443 0 0 1 .515-2.633 5.592 5.592 0 0 1 1.451-1.973 6.564 6.564 0 0 1 2.233-1.243 9.125 9.125 0 0 1 2.887-.434 15.284 15.284 0 0 1 2.774.27 13.95 13.95 0 0 1 2.269.621h.081v-1.372a9.493 9.493 0 0 0 -.1-1.432 3.858 3.858 0 0 0 -.343-1.1 4.157 4.157 0 0 0 -1.683-1.652 6.4 6.4 0 0 0 -3.12-.652 12.94 12.94 0 0 0 -2.745.281 16.712 16.712 0 0 0 -2.562.776v-2.7a8.129 8.129 0 0 1 1.145-.47 12.161 12.161 0 0 1 1.389-.372 14.7 14.7 0 0 1 1.539-.24 15.635 15.635 0 0 1 1.62-.081 9.556 9.556 0 0 1 4.769 1.057 6.244 6.244 0 0 1 2.664 2.8 5.9 5.9 0 0 1 .432 1.462 10.454 10.454 0 0 1 .132 1.754v13.159h-2.63zm-.166-6.474c-.578-.169-1.262-.324-2.055-.476a15.023 15.023 0 0 0 -2.618-.251 5.029 5.029 0 0 0 -3.131.871 3.175 3.175 0 0 0 -1.128 2.675 4.185 4.185 0 0 0 .284 1.6 3 3 0 0 0 .778 1.128 3.117 3.117 0 0 0 1.172.663 4.5 4.5 0 0 0 1.435.22 5.682 5.682 0 0 0 1.874-.3 7.862 7.862 0 0 0 1.548-.718 8.128 8.128 0 0 0 1.145-.829c.318-.277.547-.49.7-.642z" transform="translate(-318.272 -188.834)"/><path d="m415.323 227.3v-19.713h3.145v19.713z" transform="translate(-303.127 -188.651)"/><path d="m424.313 210.512h.064a10.057 10.057 0 0 1 1.158-1.28 7.609 7.609 0 0 1 1.432-1.035 7.239 7.239 0 0 1 1.731-.7 8.042 8.042 0 0 1 2.058-.246 7.93 7.93 0 0 1 2.466.372 5.013 5.013 0 0 1 2.009 1.2 5.738 5.738 0 0 1 1.345 2.177 9.529 9.529 0 0 1 .5 3.287v13.2h-3.143v-12.682a5.655 5.655 0 0 0 -.956-3.672 3.5 3.5 0 0 0 -2.805-1.119 5.992 5.992 0 0 0 -3.143.921 8.416 8.416 0 0 0 -2.61 2.543v14.008h-3.143v-18.952h3.049z" transform="translate(-299.855 -188.834)"/><path d="m442.492 227.819a10.085 10.085 0 0 1 -2.694-.33 7.069 7.069 0 0 1 -2.1-.938 5.954 5.954 0 0 1 -1.53-1.441 7 7 0 0 1 -1-1.834 7.238 7.238 0 0 1 -.4-1.64 14.324 14.324 0 0 1 -.124-1.953v-12.1h3.143v12.077a7.524 7.524 0 0 0 .429 2.739 4.027 4.027 0 0 0 1.559 1.964 4.983 4.983 0 0 0 2.771.715 4.756 4.756 0 0 0 2.867-.79 4.35 4.35 0 0 0 1.551-2.117 7.981 7.981 0 0 0 .343-2.509v-12.075h3.134v12.119a15.342 15.342 0 0 1 -.107 1.855 9.221 9.221 0 0 1 -.352 1.589 7.341 7.341 0 0 1 -1.006 1.88 6.359 6.359 0 0 1 -1.572 1.485 7.7 7.7 0 0 1 -2.157.967 10.5 10.5 0 0 1 -2.755.337z" transform="translate(-292.5 -188.651)"/><path d="m448.437 227.3v-19.713h3.146v19.713z" transform="translate(-284.918 -188.651)"/><path d="m454.31 209.5v-5.4h3.143v5.4h4.93v2.759h-4.93v11.5a3.968 3.968 0 0 0 .191 1.263 2.569 2.569 0 0 0 .609 1.009 2.814 2.814 0 0 0 1.06.663 4.612 4.612 0 0 0 1.564.237 9.309 9.309 0 0 0 1.319-.1 11.463 11.463 0 0 0 1.293-.271v2.7a6.666 6.666 0 0 1 -1.234.312 13.11 13.11 0 0 1 -1.989.166 8.021 8.021 0 0 1 -2.632-.384 4.941 4.941 0 0 1 -1.857-1.1 4.386 4.386 0 0 1 -1.1-1.733 6.653 6.653 0 0 1 -.367-2.26z" transform="translate(-281.688 -190.565)"/><path d="m414.6 208.5v1.51h-.078a4.422 4.422 0 0 0 -.538-.727 6.236 6.236 0 0 0 -1.063-.927 6.494 6.494 0 0 0 -1.6-.777 7.267 7.267 0 0 0 -2.19-.33 8.075 8.075 0 0 0 -3.179.651 7.682 7.682 0 0 0 -2.726 1.982 9.9 9.9 0 0 0 -1.927 3.351 15.971 15.971 0 0 0 -.338 8.29 10.45 10.45 0 0 0 1.039 2.63 7.2 7.2 0 0 0 1.5 1.847 7.964 7.964 0 0 0 3.647 1.818 8.777 8.777 0 0 0 1.74.186 7.821 7.821 0 0 0 3.126-.592 6.746 6.746 0 0 0 2.4-1.753h.057v1.648a6.29 6.29 0 0 1 -1.8 4.94 7.156 7.156 0 0 1 -4.648 1.6v2.807a14.137 14.137 0 0 0 3.647-.541 8.621 8.621 0 0 0 3.171-1.666 7.439 7.439 0 0 0 2.041-2.813 9.967 9.967 0 0 0 .735-3.972v-19.162zm-.124 14.52a7.294 7.294 0 0 1 -2.243 1.64 6.352 6.352 0 0 1 -2.736.6 6.482 6.482 0 0 1 -1.88-.3 4.445 4.445 0 0 1 -1.832-1.119 6.118 6.118 0 0 1 -1.39-2.294 11.14 11.14 0 0 1 -.544-3.8 12.916 12.916 0 0 1 .358-3.143 7.435 7.435 0 0 1 1.09-2.438 5.291 5.291 0 0 1 5.956-1.875 6.444 6.444 0 0 1 1.41.684 6.535 6.535 0 0 1 1.085.883 6.332 6.332 0 0 1 .725.849z" transform="translate(-311.243 -188.834)"/><path d="m471.794 227.514.361-.879 7.719-19.048h-3.139l-6.135 15.462h-.124l-5.972-15.462h-3.143l7.549 19.213c-.891 1.97-2.667 5.1-5.629 6.445l1.179 2.65a14.815 14.815 0 0 0 6.15-6.031 22.7 22.7 0 0 0 1.147-2.269z" transform="translate(-277.81 -188.651)"/></g></svg>