<svg xmlns="http://www.w3.org/2000/svg" xmlns:xlink="http://www.w3.org/1999/xlink" width="157" height="182.765" viewBox="0 0 157 182.765">
  <defs>
    <clipPath id="clip-path">
      <rect id="Rectangle_9156" data-name="Rectangle 9156" width="143.048" height="116.265" fill="none"/>
    </clipPath>
  </defs>
  <g id="Group_6407" data-name="Group 6407" transform="translate(-714 -2530.235)">
    <text id="Hybrid_office_flexibility" data-name="Hybrid office
flexibility" transform="translate(714 2678)" fill="#004e78" font-size="16" font-family="Helvetica-Bold, Helvetica" font-weight="700"><tspan x="0" y="12">HYBRID OFFICE</tspan><tspan x="0" y="30.4">FLEXIBILITY</tspan></text>
    <line id="Line_45" data-name="Line 45" x2="156" transform="translate(714.5 2671.5)" fill="none" stroke="#004e78" stroke-width="1"/>
    <g id="Group_6400" data-name="Group 6400" transform="translate(721.476 2530.235)">
      <g id="Group_6387" data-name="Group 6387" clip-path="url(#clip-path)">
        <path id="Path_7305" data-name="Path 7305" d="M102.925,26.328a13.163,13.163,0,1,1,13.164-13.164,13.178,13.178,0,0,1-13.164,13.164m0-22.01a8.846,8.846,0,1,0,8.847,8.846,8.856,8.856,0,0,0-8.847-8.846" fill="#004d89"/>
        <path id="Path_7306" data-name="Path 7306" d="M91.464,60.011H64.322a2.158,2.158,0,0,1-2.149-2.36l.221-2.362a9.851,9.851,0,0,1,9.851-8.971h14.3l6.221-17.04a2.158,2.158,0,1,1,4.055,1.481L90.082,49.217a2.158,2.158,0,0,1-2.028,1.418H72.245a5.554,5.554,0,0,0-5.553,5.056v0H91.464a3.761,3.761,0,0,0,3.549-2.525c.014-.042.031-.084.048-.125L101,38.853a2.159,2.159,0,1,1,3.982,1.668l-5.92,14.133a8.079,8.079,0,0,1-7.6,5.357" fill="#004d89"/>
        <path id="Path_7307" data-name="Path 7307" d="M76.292,60.011H62.257a8.464,8.464,0,0,1-8.07-6.028L47.016,29.752a2.159,2.159,0,1,1,4.14-1.225l7.171,24.231a4.121,4.121,0,0,0,3.93,2.936H76.292a2.159,2.159,0,1,1,0,4.317" fill="#004d89"/>
        <path id="Path_7308" data-name="Path 7308" d="M106.025,65.577a2.159,2.159,0,0,1-2.1-2.676l7.2-29.156a12.468,12.468,0,0,0-1.262-8.691l-1.472-2.667a2.159,2.159,0,0,1,3.781-2.086l1.471,2.667A16.785,16.785,0,0,1,115.339,34.7l-.012.052-7.208,29.182a2.159,2.159,0,0,1-2.094,1.641m7.206-31.341h0Z" fill="#004d89"/>
        <path id="Path_7309" data-name="Path 7309" d="M67.933,67.336A2.155,2.155,0,0,1,67,67.125L51.672,59.8a2.159,2.159,0,1,1,1.861-3.9l15.332,7.325a2.159,2.159,0,0,1-.932,4.107" fill="#004d89"/>
        <path id="Path_7310" data-name="Path 7310" d="M62.661,78.176a2.171,2.171,0,0,1-.762-.139L49.613,73.4a9.115,9.115,0,0,1,3.034-17.709h9.917a2.158,2.158,0,1,1,0,4.317H52.647a4.8,4.8,0,0,0-1.583,9.326l.05.018L63.423,74a2.159,2.159,0,0,1-.762,4.179" fill="#004d89"/>
        <path id="Path_7311" data-name="Path 7311" d="M48.071,115.958A7.892,7.892,0,0,1,40.86,104.9c.007-.015.013-.029.02-.043L55.615,73.221a2.159,2.159,0,0,1,3.914,1.823L44.805,106.657a3.564,3.564,0,0,0,6.54,2.835l.033-.073,8.458-17.635a2.159,2.159,0,0,1,3.893,1.867l-8.442,17.6a7.906,7.906,0,0,1-7.216,4.705" fill="#004d89"/>
        <path id="Path_7312" data-name="Path 7312" d="M108.5,90.774H71.6a7.013,7.013,0,0,1-6.5-9.635l3.745-9.294a14.964,14.964,0,0,1,13.941-9.413H99.9A14.633,14.633,0,0,0,113.863,52.27l6-20.865a17.184,17.184,0,0,1,16.42-12.336h1.674a5.089,5.089,0,1,1,0,10.178h-1.54a7.064,7.064,0,0,0-6.772,5.123L115.253,85.664a7.041,7.041,0,0,1-6.751,5.11M82.778,66.749a10.666,10.666,0,0,0-9.937,6.71L69.1,82.753a2.7,2.7,0,0,0,2.5,3.7h36.9a2.706,2.706,0,0,0,2.6-1.963l14.395-51.3a11.4,11.4,0,0,1,10.927-8.27h1.54a.771.771,0,0,0,0-1.542h-1.674A12.845,12.845,0,0,0,124.012,32.6L118,53.5c-.006.021-.013.042-.019.063A18.938,18.938,0,0,1,99.9,66.749Zm-15.684,15.2h0Z" fill="#004d89"/>
        <path id="Path_7313" data-name="Path 7313" d="M107.487,116.265a2.159,2.159,0,0,1-2.068-1.544l-7.489-25.2a2.159,2.159,0,1,1,4.139-1.23l7.488,25.2a2.16,2.16,0,0,1-2.07,2.774" fill="#004d89"/>
        <path id="Path_7314" data-name="Path 7314" d="M73.339,116.265a2.16,2.16,0,0,1-2.07-2.774l7.488-25.2a2.159,2.159,0,1,1,4.139,1.23l-7.489,25.2a2.159,2.159,0,0,1-2.068,1.544" fill="#004d89"/>
        <path id="Path_7315" data-name="Path 7315" d="M2.159,86.966a2.159,2.159,0,0,1,0-4.318,173.652,173.652,0,0,0,25.668-1.715c7.241-1.135,9.957-2.4,10.909-3.017-1.526-.969-6.678-2.865-18.912-3.972a2.158,2.158,0,1,1,.389-4.3,91.545,91.545,0,0,1,15.752,2.563c3.2.9,7.467,2.482,7.467,5.714S39.348,83.3,30.191,84.916a170.023,170.023,0,0,1-28.032,2.05m37.05-8.657h0Z" fill="#004d89"/>
        <path id="Path_7316" data-name="Path 7316" d="M9.976,73.333H9.9c-2.528-.091-5.132-.136-7.74-.136a2.159,2.159,0,0,1,0-4.318c2.659,0,5.315.047,7.894.139a2.159,2.159,0,0,1-.076,4.316" fill="#004d89"/>
        <path id="Path_7317" data-name="Path 7317" d="M14.022,115.972a2.159,2.159,0,0,1-2.141-1.9L8.444,85.061a2.159,2.159,0,0,1,4.288-.508l3.436,29.006a2.158,2.158,0,0,1-1.889,2.4,2.24,2.24,0,0,1-.257.015" fill="#004d89"/>
        <path id="Path_7318" data-name="Path 7318" d="M19.333,78.762H10.9A2.159,2.159,0,0,1,8.753,76.78L7.521,61.747a2.159,2.159,0,0,1,2.152-2.335H20.566a2.159,2.159,0,0,1,2.151,2.335L21.485,76.78a2.159,2.159,0,0,1-2.152,1.982m-6.439-4.318h4.45l.879-10.715H12.016Z" fill="#004d89"/>
        <path id="Path_7319" data-name="Path 7319" d="M16.317,55.819a2.159,2.159,0,0,1-2.159-2.159V50.577a6.115,6.115,0,0,1,6.108-6.107H21a.772.772,0,0,0,.771-.771,5.1,5.1,0,0,1,5.089-5.089h1.171a2.158,2.158,0,1,1,0,4.317H26.865a.772.772,0,0,0-.772.772A5.093,5.093,0,0,1,21,48.787h-.739a1.792,1.792,0,0,0-1.79,1.79V53.66a2.159,2.159,0,0,1-2.159,2.159" fill="#004d89"/>
      </g>
    </g>
  </g>
</svg>
