<svg xmlns="http://www.w3.org/2000/svg" height="25.684" viewBox="0 0 16.31 25.684" width="16.31"><path d="m5.406 9.1c-.146-.837 0-.983 0-.983l1.965-1.269a1.177 1.177 0 0 0 .473-1.492l-1.528-3.566a1.158 1.158 0 0 0 -1.347-.655l-1.419.365a1.7 1.7 0 0 0 -.364.182c-3.421 2.146-2.329 8.223-.073 13.537 2.187 5.168 5.823 10.445 9.787 9.353a1.293 1.293 0 0 0 .328-.146l1.347-.764a1.151 1.151 0 0 0 .473-1.419l-1.529-3.567a1.21 1.21 0 0 0 -1.419-.691l-2.293.51s-.8-.036-2.875-4.877a29.642 29.642 0 0 1 -1.344-3.749c-.073-.328-.146-.582-.182-.764" fill="none" stroke="#394b83" stroke-linecap="square" stroke-miterlimit="10" stroke-width="2" transform="translate(.126 -.064)"/></svg>