<svg xmlns="http://www.w3.org/2000/svg" xmlns:xlink="http://www.w3.org/1999/xlink" width="157" height="200.947" viewBox="0 0 157 200.947">
  <defs>
    <clipPath id="clip-path">
      <rect id="Rectangle_9153" data-name="Rectangle 9153" width="124.676" height="131.946" fill="none"/>
    </clipPath>
  </defs>
  <g id="Group_6410" data-name="Group 6410" transform="translate(-15 -2512.053)">
    <text id="_401K_6_match" data-name="401K
6% match" transform="translate(15 2678)" fill="#004e78" font-size="16" font-family="Helvetica-Bold, Helvetica" font-weight="700"><tspan x="0" y="12">401K</tspan><tspan x="0" y="30.4">6% MATCH</tspan></text>
    <line id="Line_48" data-name="Line 48" x2="156" transform="translate(15.5 2671.5)" fill="none" stroke="#004e78" stroke-width="1"/>
    <g id="Group_6404" data-name="Group 6404" transform="translate(25.542 2512.053)">
      <g id="Group_6382" data-name="Group 6382" clip-path="url(#clip-path)">
        <circle id="Ellipse_1" data-name="Ellipse 1" cx="13.972" cy="13.972" r="13.972" transform="translate(58.469 1.809)" fill="none" stroke="#55bbed" stroke-linecap="round" stroke-linejoin="round" stroke-width="4.25"/>
        <path id="Path_7274" data-name="Path 7274" d="M89.684,13.915c0-1.846-2.459-3.344-5.494-3.344s-5.493,1.5-5.493,3.344,2.459,3.344,5.493,3.344,5.494,1.5,5.494,3.344-2.459,3.344-5.494,3.344S78.7,22.45,78.7,20.6" transform="translate(-11.704 -1.572)" fill="none" stroke="#55bbed" stroke-linecap="round" stroke-linejoin="round" stroke-width="4.25"/>
        <line id="Line_19" data-name="Line 19" y2="17.771" transform="translate(72.486 6.814)" fill="none" stroke="#55bbed" stroke-linecap="round" stroke-linejoin="round" stroke-width="4.25"/>
        <path id="Path_7275" data-name="Path 7275" d="M100.241,95.365a32.294,32.294,0,0,0-6.766-21.9C82.28,60.109,61,57.077,44.747,60.449c-.771.16-6.123,2.055-6.677,1.594,0,0-3.484-2.973-4.069-3.474-3.237-2.779-6.812-3.912-10.939-4.7a.851.851,0,0,0-.912,1.214c1.9,4.107,1.739,8.955,1.734,13.469a21.2,21.2,0,0,0-9.431,6.9A18.713,18.713,0,0,0,12.4,78.584,34.285,34.285,0,0,0,9.16,89.252c-1,.058-2.341,0-3.282.091A3.169,3.169,0,0,0,3.022,91.7a17.241,17.241,0,0,0,.309,11.845,3.179,3.179,0,0,0,3.085,2c1.188.056,2.952-.06,4.234-.025,3.724,9.366,9.489,15.449,18.7,19.572.028,2.932-.068,6.332,0,9.142a2.426,2.426,0,0,0,1.686,2.508,22.512,22.512,0,0,0,15.594.02,2.477,2.477,0,0,0,1.7-2.519c.065-1.351-.014-3.6.026-5.106,5.6-.026,11.22-.02,16.821-.01.039.925-.043,2.321.02,3.168a3.982,3.982,0,0,0,2.762,3.82,21.612,21.612,0,0,0,13.487-.038c1.71-.56,2.607-1.722,2.737-3.862.2-3.386-.339-7.145.193-11.052.076-.559,4.232-2.985,4.879-3.548a27.655,27.655,0,0,0,4.425-4.755,34.854,34.854,0,0,0,5.664-11.9A29.481,29.481,0,0,0,100.241,95.365Z" transform="translate(-0.316 -8.01)" fill="none" stroke="#d81e72" stroke-linecap="round" stroke-linejoin="round" stroke-width="4.25"/>
        <path id="Path_7276" data-name="Path 7276" d="M25.876,85.978A3.019,3.019,0,1,1,28.9,89a3.019,3.019,0,0,1-3.019-3.019" transform="translate(-3.848 -12.338)" fill="#d81e72"/>
        <path id="Path_7277" data-name="Path 7277" d="M79.286,70.782c-8.945-3.259-19.149-2.888-27.944-.249" transform="translate(-7.636 -10.18)" fill="none" stroke="#d81e72" stroke-linecap="round" stroke-linejoin="round" stroke-width="4.25"/>
        <path id="Path_7278" data-name="Path 7278" d="M77.842,30.5A13.972,13.972,0,1,1,63.87,16.528,13.972,13.972,0,0,1,77.842,30.5" transform="translate(-7.421 -2.458)" fill="#fff"/>
        <circle id="Ellipse_2" data-name="Ellipse 2" cx="13.972" cy="13.972" r="13.972" transform="translate(42.477 14.07)" fill="none" stroke="#d81e72" stroke-linecap="round" stroke-linejoin="round" stroke-width="4.25"/>
        <path id="Path_7279" data-name="Path 7279" d="M70.9,28.318c0-1.846-2.459-3.344-5.494-3.344s-5.493,1.5-5.493,3.344,2.459,3.344,5.493,3.344,5.494,1.5,5.494,3.344-2.459,3.344-5.494,3.344-5.493-1.5-5.493-3.344" transform="translate(-8.91 -3.714)" fill="none" stroke="#d81e72" stroke-linecap="round" stroke-linejoin="round" stroke-width="4.25"/>
        <line id="Line_20" data-name="Line 20" y2="17.771" transform="translate(56.494 19.075)" fill="none" stroke="#d81e72" stroke-linecap="round" stroke-linejoin="round" stroke-width="4.25"/>
        <path id="Path_7280" data-name="Path 7280" d="M117.4,97.132a33.915,33.915,0,0,1,5.792.025,11.378,11.378,0,0,1,5.4,1.945,12.324,12.324,0,0,1,3.562,4.511c.959,1.9,1.621,4.25.571,6.1a4.289,4.289,0,0,1-4.512,1.94,5.226,5.226,0,0,1-3.726-3.372c-1.387-3.885,1.114-7.815,4.888-9.1a9.409,9.409,0,0,1,10.958,4.7" transform="translate(-17.46 -14.429)" fill="none" stroke="#d81e72" stroke-linecap="round" stroke-linejoin="round" stroke-width="4.25"/>
      </g>
    </g>
  </g>
</svg>
