<svg xmlns="http://www.w3.org/2000/svg" xmlns:xlink="http://www.w3.org/1999/xlink" width="157" height="190.045" viewBox="0 0 157 190.045">
  <defs>
    <clipPath id="clip-path">
      <rect id="Rectangle_9157" data-name="Rectangle 9157" width="121.298" height="123.545" fill="none"/>
    </clipPath>
  </defs>
  <g id="Group_6406" data-name="Group 6406" transform="translate(-947 -2522.955)">
    <text id="Profit_Sharing_Bonus" data-name="Profit Sharing
Bonus" transform="translate(947 2678)" fill="#004e78" font-size="16" font-family="Helvetica-Bold, Helvetica" font-weight="700"><tspan x="0" y="12">PROFIT SHARING</tspan><tspan x="0" y="30.4">BONUS</tspan></text>
    <line id="Line_43" data-name="Line 43" x2="156" transform="translate(947.5 2671.5)" fill="none" stroke="#004e78" stroke-width="1"/>
    <g id="Group_6399" data-name="Group 6399" transform="translate(967.829 2522.955)">
      <g id="Group_6389" data-name="Group 6389" clip-path="url(#clip-path)">
        <path id="Path_7320" data-name="Path 7320" d="M71.086,127.48a32.871,32.871,0,0,0,20.066.08l1.407-.482c.975-.359,1.924-.77,2.853-1.217l-.008,0v-7.031l-3.2-10.084c-.407-1.278-3.027-3.948-5.538-3.948H75.642c-2.657,0-5.08,2.691-5.479,3.948l-4.59,14.45-.514,1.619c.167.1.345.175.514.266a32.551,32.551,0,0,0,4.244,1.961Z" transform="translate(-4.666 -7.516)" fill="none" stroke="#84147d" stroke-linecap="round" stroke-linejoin="round" stroke-width="4.25"/>
        <path id="Path_7321" data-name="Path 7321" d="M81.964,101.7a6.041,6.041,0,1,0-6.041-6.04A6.04,6.04,0,0,0,81.964,101.7Z" transform="translate(-5.446 -6.428)" fill="none" stroke="#84147d" stroke-linecap="round" stroke-linejoin="round" stroke-width="4.25"/>
        <path id="Path_7322" data-name="Path 7322" d="M112.727,101.469a5.908,5.908,0,1,0-5.909-5.909A5.917,5.917,0,0,0,112.727,101.469Z" transform="translate(-7.662 -6.43)" fill="none" stroke="#84147d" stroke-linecap="round" stroke-linejoin="round" stroke-width="4.25"/>
        <path id="Path_7323" data-name="Path 7323" d="M103.015,127.888a32.692,32.692,0,0,1-5.26-1.995l-.008,0v-16.4A4.255,4.255,0,0,1,102,105.239h20.09a4.254,4.254,0,0,1,4.249,4.251v16.3a32.444,32.444,0,0,1-5.267,2.039l-1.438.381a32.952,32.952,0,0,1-15.11.067Z" transform="translate(-7.011 -7.548)" fill="none" stroke="#84147d" stroke-linecap="round" stroke-linejoin="round" stroke-width="4.25"/>
        <line id="Line_34" data-name="Line 34" y1="12.434" transform="translate(111.506 108.227)" fill="none" stroke="#84147d" stroke-linecap="round" stroke-linejoin="round" stroke-width="4.25"/>
        <path id="Path_7324" data-name="Path 7324" d="M41.638,59.442,20.956,73.4v8.423" transform="translate(-1.503 -4.264)" fill="none" stroke="#84147d" stroke-linecap="round" stroke-linejoin="round" stroke-width="4.25"/>
        <path id="Path_7325" data-name="Path 7325" d="M60.675,61.287,49.457,74.814v7.293" transform="translate(-3.547 -4.396)" fill="none" stroke="#84147d" stroke-linecap="round" stroke-linejoin="round" stroke-width="4.25"/>
        <path id="Path_7326" data-name="Path 7326" d="M100.113,66.866l10.467,7.061v8.423" transform="translate(-7.181 -4.796)" fill="none" stroke="#84147d" stroke-linecap="round" stroke-linejoin="round" stroke-width="4.25"/>
        <path id="Path_7327" data-name="Path 7327" d="M72.652,64.059l9.5,10.955v7.293" transform="translate(-5.211 -4.595)" fill="none" stroke="#84147d" stroke-linecap="round" stroke-linejoin="round" stroke-width="4.25"/>
        <line id="Line_35" data-name="Line 35" x2="0.004" y2="12.5" transform="translate(98.708 108.227)" fill="none" stroke="#84147d" stroke-linecap="round" stroke-linejoin="round" stroke-width="4.25"/>
        <line id="Line_36" data-name="Line 36" x1="2.673" y1="8.414" transform="translate(82.536 111.107)" fill="none" stroke="#84147d" stroke-linecap="round" stroke-linejoin="round" stroke-width="4.25"/>
        <line id="Line_37" data-name="Line 37" x1="2.673" y2="8.414" transform="translate(67.724 111.107)" fill="none" stroke="#84147d" stroke-linecap="round" stroke-linejoin="round" stroke-width="4.25"/>
        <path id="Path_7328" data-name="Path 7328" d="M8.152,127.48a32.871,32.871,0,0,0,20.066.08l1.407-.482c.975-.359,1.924-.77,2.853-1.217l-.008,0v-7.031l-3.2-10.084c-.407-1.278-3.026-3.948-5.538-3.948H12.708c-2.657,0-5.08,2.691-5.479,3.948l-4.59,14.45-.514,1.619c.167.1.345.175.514.266a32.551,32.551,0,0,0,4.244,1.961Z" transform="translate(-0.152 -7.516)" fill="none" stroke="#84147d" stroke-linecap="round" stroke-linejoin="round" stroke-width="4.25"/>
        <path id="Path_7329" data-name="Path 7329" d="M19.03,101.7a6.041,6.041,0,1,0-6.041-6.04A6.04,6.04,0,0,0,19.03,101.7Z" transform="translate(-0.932 -6.428)" fill="none" stroke="#84147d" stroke-linecap="round" stroke-linejoin="round" stroke-width="4.25"/>
        <path id="Path_7330" data-name="Path 7330" d="M49.793,101.469a5.908,5.908,0,1,0-5.908-5.909A5.916,5.916,0,0,0,49.793,101.469Z" transform="translate(-3.148 -6.43)" fill="none" stroke="#84147d" stroke-linecap="round" stroke-linejoin="round" stroke-width="4.25"/>
        <path id="Path_7331" data-name="Path 7331" d="M40.082,127.888a32.693,32.693,0,0,1-5.26-1.995l-.008,0v-16.4a4.255,4.255,0,0,1,4.251-4.251h20.09A4.254,4.254,0,0,1,63.4,109.49v16.3a32.443,32.443,0,0,1-5.267,2.039l-1.438.381a32.952,32.952,0,0,1-15.11.067Z" transform="translate(-2.497 -7.548)" fill="none" stroke="#84147d" stroke-linecap="round" stroke-linejoin="round" stroke-width="4.25"/>
        <line id="Line_38" data-name="Line 38" y1="12.434" transform="translate(53.087 108.227)" fill="none" stroke="#84147d" stroke-linecap="round" stroke-linejoin="round" stroke-width="4.25"/>
        <line id="Line_39" data-name="Line 39" x2="0.004" y2="12.5" transform="translate(40.289 108.227)" fill="none" stroke="#84147d" stroke-linecap="round" stroke-linejoin="round" stroke-width="4.25"/>
        <line id="Line_40" data-name="Line 40" x1="2.673" y1="8.414" transform="translate(24.116 111.107)" fill="none" stroke="#84147d" stroke-linecap="round" stroke-linejoin="round" stroke-width="4.25"/>
        <line id="Line_41" data-name="Line 41" x1="2.673" y2="8.414" transform="translate(9.304 111.107)" fill="none" stroke="#84147d" stroke-linecap="round" stroke-linejoin="round" stroke-width="4.25"/>
        <path id="Path_7332" data-name="Path 7332" d="M16.175,5.455V57.88c31.6-11.534,63.2,11.534,94.8,0V5.455C79.375,16.989,47.774-6.079,16.175,5.455Z" transform="translate(-1.16 -0.152)" fill="none" stroke="#84147d" stroke-linecap="round" stroke-linejoin="round" stroke-width="4.25"/>
        <path id="Path_7333" data-name="Path 7333" d="M35.728,29.964a4.949,4.949,0,0,1-4.595,4.826,4.022,4.022,0,0,1-4.595-4.021A5.278,5.278,0,0,1,31.133,25.6,4.277,4.277,0,0,1,35.728,29.964Z" transform="translate(-1.903 -1.835)" fill="none" stroke="#84147d" stroke-linecap="round" stroke-linejoin="round" stroke-width="4.25"/>
        <path id="Path_7334" data-name="Path 7334" d="M106.826,36.338a5.237,5.237,0,0,1-4.594,5.138,4.306,4.306,0,0,1-4.6-4.388,4.915,4.915,0,0,1,4.6-4.8A4.052,4.052,0,0,1,106.826,36.338Z" transform="translate(-7.003 -2.315)" fill="none" stroke="#84147d" stroke-linecap="round" stroke-linejoin="round" stroke-width="4.25"/>
        <ellipse id="Ellipse_3" data-name="Ellipse 3" cx="20.872" cy="25.611" rx="20.872" ry="25.611" transform="translate(37.697 9.103) rotate(-8.85)" fill="none" stroke="#84147d" stroke-linecap="round" stroke-linejoin="round" stroke-width="4.25"/>
        <path id="Path_7335" data-name="Path 7335" d="M76.168,27.481c0-3.53-4.39-6.8-9.8-7.307s-9.8,1.946-9.8,5.476,4.389,6.8,9.8,7.307,9.8,3.778,9.8,7.307-4.39,5.982-9.8,5.477-9.8-3.778-9.8-7.308" transform="translate(-4.057 -1.442)" fill="none" stroke="#84147d" stroke-linecap="round" stroke-linejoin="round" stroke-width="4.25"/>
        <line id="Line_42" data-name="Line 42" y2="33.969" transform="translate(62.307 14.555)" fill="none" stroke="#84147d" stroke-linecap="round" stroke-linejoin="round" stroke-width="4.25"/>
        <path id="Path_7336" data-name="Path 7336" d="M107,8.368s.16,9.635,10.494,7.92V5.785A50.516,50.516,0,0,1,107,8.368Z" transform="translate(-7.674 -0.415)" fill="none" stroke="#84147d" stroke-linecap="round" stroke-linejoin="round" stroke-width="4.25"/>
        <path id="Path_7337" data-name="Path 7337" d="M117.6,53.767c-.264-.025-.531-.04-.8-.04a8.175,8.175,0,0,0-7.927,10.281A53.073,53.073,0,0,0,117.6,61.65Z" transform="translate(-7.789 -3.854)" fill="none" stroke="#84147d" stroke-linecap="round" stroke-linejoin="round" stroke-width="4.25"/>
        <path id="Path_7338" data-name="Path 7338" d="M16.175,51.692V61.5a94.828,94.828,0,0,1,10.652-2.782C24.378,52.231,19.943,51.692,16.175,51.692Z" transform="translate(-1.16 -3.708)" fill="none" stroke="#84147d" stroke-linecap="round" stroke-linejoin="round" stroke-width="4.25"/>
        <path id="Path_7339" data-name="Path 7339" d="M25.8,5.165a7.067,7.067,0,0,0-.306-2.037,45.77,45.77,0,0,0-9.314,2.466v9.981C20.706,15.575,25.8,9.7,25.8,5.165Z" transform="translate(-1.16 -0.224)" fill="none" stroke="#84147d" stroke-linecap="round" stroke-linejoin="round" stroke-width="4.25"/>
      </g>
    </g>
  </g>
</svg>
